<svg xmlns="http://www.w3.org/2000/svg" width="1730.26" height="358.93" viewBox="0 0 1730.26 358.93"><g id="Layer_2" data-name="Layer 2"><g id="Layer_1-2" data-name="Layer 1"><path d="M20.68,131.12c-.25,14.48-.7,29.09-1.23,43.61q-1.23,33.72-1.24,41.14c0,15.11.27,30.25.62,45.34.43,18.27.76,29.31,1.24,32.8a32.52,32.52,0,0,1,.3,4.38,4.23,4.23,0,0,1-.77,2.94,7.65,7.65,0,0,1-2.31,1.42c-1.22.55-4.43.42-9.57-.57l-3.86-.74c-1.75-.34-2.83-.76-3.24-1.25A4.08,4.08,0,0,1,0,297.6l.31-9.82c.25-16.13.37-24.19.62-40.32q.3-32.36.61-64.71,0-9.25,1.24-41.74.3-7.65.93-25t0-20.53L3.4,89q0-8,4.94-7.07c4.56,1,6.85,1.49,11.42,2.45q3.07.57,3.08,4.89a23.17,23.17,0,0,1-.3,3.49,23.83,23.83,0,0,0-.31,3.8C21.61,100.94,21,112.56,20.68,131.12Z" style="fill:#803af3"/><path d="M162.07,81.12q13,10.35,18.06,18.32l6.33,10q3.07,4.27,3.08,6.43a3.85,3.85,0,0,1-1.23,3,10.41,10.41,0,0,1-3.09,1.91,9.5,9.5,0,0,0-2.47,1.33,107.18,107.18,0,0,0-9.88,6.85q-2.77,1.9-8.18,5.57a74.66,74.66,0,0,1-7.25,4.38,4.55,4.55,0,0,1-2.47.68q-2.16-.21-4-2.88T148.49,133q-.63-1-3.25-4.35a26.66,26.66,0,0,0-6.63-6,20.63,20.63,0,0,0-9-3.17q-9.27-1.07-14.51,10.31t-5.25,42.25q0,20.38,3.39,33.77t8.19,19.68c3.18,4.18,6.22,6.45,9.1,6.78q6.18.7,9.42-1.73c2.16-1.61,4-4.95,5.71-9.88,1.6-4.74,4.32-6.95,8-6.58a17.85,17.85,0,0,1,4.17,1c1.54.56,2.73,1,3.55,1.27,2.06,1,7.11,2.81,15.13,5.27s15,4.34,20.68,5.89c2.85.78,4.32,3.41,4.32,7.74a32.29,32.29,0,0,1-.31,4.6,61.8,61.8,0,0,1-2.46,10.62,80.31,80.31,0,0,1-22.08,33.83c-12.3,11.28-30.53,13.16-46.46,11.18-12.41-1.55-25.32-6.83-38-16.21-14.53-10.78-24.92-26.71-32.41-42.91-10.23-22.11-13.63-48.6-13.28-72.38.39-26.33,1.2-61.94,23.77-80.66a70.49,70.49,0,0,1,53.41-15.5C140.59,70,153.43,74.21,162.07,81.12Z" style="fill:#803af3"/><path d="M359.64,129.45c0,4.74-.42,7.1-1.24,7.1a20.68,20.68,0,0,1-4.16-.48,29.5,29.5,0,0,0-5.72-.49q-24.69-.15-49.39-.86c-15.31-.55-23-.89-38.28-1.71-1.23-.06-5.86,0-13.89.24-2.84.1-4.26.15-7.1.23-.25,3.32-.37,5-.62,8.3q-.31,4.62-.31,14.5c0,3.29.19,7.64.62,13,.4,4.95.62,8.57.62,10.84v12.34c0,3.3-.16,7.24.31,7.74s4.63.56,8.33.75c4.94.26,7.41.38,12.35.6,1.24.06,3.77-.1,7.41-.29,5.25-.27,10-.22,13.89-.08,1.65.06,7.41.58,17.29,1.47l6.79.49q2.46.06,7.1-.3t8.95-.29c4.08.2,6.11.29,10.19.47,5.35.49,9.05.72,11.11.74a22.38,22.38,0,0,0,4.63-.27l1.86-.3a3.45,3.45,0,0,1,3.08,1.41,3.5,3.5,0,0,1,.62,2.63,30.55,30.55,0,0,0-.31,5.4,45.66,45.66,0,0,1-.31,5.71c-.2,1.64-.51,2.62-.92,2.93s-1.65.45-3.71.44l-12.35-1.35c-15.43-1.62-25.52-2.6-30.25-2.72-17.49-.43-30.58-.83-38.59-.37a100,100,0,0,1-10.8.13l-7.41-.36a83.15,83.15,0,0,1-8.64-.77l-.93,4.88a87.88,87.88,0,0,0-.62,9.85,72,72,0,0,0,.62,8.68,71.83,71.83,0,0,1,.62,8.68l.31,36.75-.31,15.42a72.42,72.42,0,0,0-.31,7.7c2.67.35,6.71.56,11.73.93,4.23.31,11,.84,20.06,1.21,6.67.39,10,.58,16.68.92,3.49.32,8.84.59,16.05.78,4.32.11,10,0,17-.25,5.18,0,7.78-.05,13-.11q7.41.09,12.35.43t7.41.35c1.64,0,2.62.32,2.93.94a10.9,10.9,0,0,1,.46,4,34.71,34.71,0,0,1-.3,4.47,38,38,0,0,0-.31,5.1,3,3,0,0,1-1.55,2.92,11.67,11.67,0,0,1-4.94.75,39.05,39.05,0,0,1-5.55-.35c-5.56-.66-16.78-1.06-33.65-1.44-10.29-.23-17.74-.39-22.23-.3-3.47.07-9.26,0-17.29-.32-11.48-.59-17.22-.92-28.7-1.67q-4.95-.57-11.73-1c-2.89-.17-4.79-.65-5.72-1.43a4.51,4.51,0,0,1-1.39-3.64l.31-4.92a11,11,0,0,0,.31-2.76c0-.61-.1-2.12-.31-4.49s-.31-6.76-.31-13.14c0-6.18,0-16.45-.61-30.3-.47-11.42-.93-22.69-.93-33.39q0-6.8,1.54-39.11.32-6.47.62-12.93t.31-11.71c0-15.73.53-32-.93-47.29-.46-4.85,2.37-7.25,9-6.86a79.58,79.58,0,0,1,8,1.08,68,68,0,0,0,7.41,1c7.78.15,11.67.21,19.45.29,14-.23,24.8-.31,32.41-.11,8.85.25,21.43.63,37.36,1.34,5.1.22,10.59.41,16.36.43,2.47,0,4,.64,4.63,1.87a7.27,7.27,0,0,1,.77,3.86c-.1,1.34-.15,2.22-.15,2.63Z" style="fill:#803af3"/><path d="M500.92,219.61c24.56,14.95,33.74,42.65,34,70C535,306.2,527.44,323,512,330.49c-13.87,6.73-32.58,11.46-48.06,11.84-16,.4-32.53,1.6-48.57,2.7-11.91.82-20.49,1.36-25.47,1.42q-5.43.06-7.13-1.79a7.45,7.45,0,0,1-1.7-5.25V324.47c.27-7.07.41-10.6.68-17.67q1.35-25.82,1.36-38.39c-.27-17-.41-25.47-.68-42.44l-.34-40.08c0-6.33.73-16.8,2-31.26.93-10.38,1.36-16.66,1.36-18.69q0-5.43-.68-18.34c-.28-5-.41-7.53-.68-12.56,0-2.94,2-4.43,6.11-4.48l5.09.28a61.18,61.18,0,0,0,7.65-.79,63.73,63.73,0,0,1,8.66-.83c3.39-.07,6,.06,7.81.18,7.86.53,21.33.36,39-.39,36.58-1.54,62.17,19.22,61.81,56.85-.09,10.09-2.49,18.86-7.47,26a60.78,60.78,0,0,1-19,17.34,94,94,0,0,1-26.49,10.55Q486.31,211.13,500.92,219.61Zm-3.06,66q0-17.64-7.3-28.21t-16.13-15.15c-5.89-3.06-10.77-4.74-14.61-5.08-3.61-.32-12.9-.74-27.85-1.39s-25.81-1.2-32.26-1.21c-3.56,0-5.89.37-6.79.94a3.54,3.54,0,0,0-1.36,3.24c0,1.36.05,3.52.17,6.45s.17,7.47.17,13.59q0,6.1-.68,17c-.14,5.43-.2,8.15-.34,13.58l-.34,23.78c0,2.27.28,3.73.85,4.41a3.56,3.56,0,0,0,2.89,1c7.06.18,10.59.26,17.66.39,3.39-.06,9.27.4,17.32,1a245.74,245.74,0,0,0,24.79.66C476,319.93,497.85,310.45,497.86,285.63ZM393.94,169.12c-.28,5.3-.41,7.95-.68,13.25,0,2.5.39,4,1.19,4.4s2.65.65,5.6.6c3.94.08,5.91.12,9.85.18,6.33.34,11,.46,13.92.39,4.49-.23,6.73-.36,11.21-.61,7.7-.65,14.06-1.21,18.68-1.22,15.91,0,32.89-8.83,32.26-27-.8-23.3-25.68-30.8-45.17-33.08A185.18,185.18,0,0,0,413,124.66q-5.1.11-17.33,1c-.27,3.4-.4,5.1-.68,8.5s-.34,8.15-.34,14.26C394.34,156.68,394.21,160.83,393.94,169.12Z" style="fill:#803af3"/><path d="M706.3,343.29c0,.41-.51,1.18-1.54,2.3q-2.78,2.1-13.89,3.06c-5.36.47-8.75.39-10.19-.2a6.09,6.09,0,0,1-3.24-3.28c-.72-1.58-1.29-2.77-1.7-3.56q-.93-1.77-7.56-10t-10-12.61c-9.77-11.63-19.31-23.55-28.41-35.71-8.8-11.64-18.2-22.83-27.47-34.09l-4.94-5.82c-8.52-10-12.78-15-21.3-25.1-.49,5-.74,7.45-1.23,12.42a117.49,117.49,0,0,0-.62,22.27c.87,14.71,1.12,29.8,1.23,44.68.14,17.57.3,35.19.31,52.77q0,4.93-3.7,6.57a25.36,25.36,0,0,1-8.65,1.94,2.43,2.43,0,0,1-2.77-1.68,15.71,15.71,0,0,1-.78-4c-.1-1.42-.15-2.35-.15-2.77a123.14,123.14,0,0,1-.62-14.47c0-4.11.19-7.28.31-9.28,1.1-18.58.65-38.84.93-58.24.35-24.84.61-49.73.61-74.59,0-23.66-.38-37.49-.92-41.31a49,49,0,0,1-.31-6.47c0-3.08.46-5.07,1.39-5.95a6.41,6.41,0,0,1,4.17-1.49q6.16-.39,12-.47c13.46-.64,20.19-1,33.65-1.72A124.58,124.58,0,0,1,649.5,140c13.38,3.25,20.07,10.7,20.07,22.44q0,16.67-12.35,26.95a77.74,77.74,0,0,1-27.63,14.84,126.79,126.79,0,0,1-26.7,5.37q-4,.28-4.32,0c1.23,1.15,9.36,11.5,24.38,30.94,24.43,30.85,48,65.43,75,92C703.13,337.68,706.3,341.23,706.3,343.29ZM590.54,197.53c11.77-1.36,21.22-2.79,27.78-4.46,9.39-2.39,16.62-5.17,21.46-8.43s7.25-8,7.25-14.16q0-6.16-6.48-10.14A44.67,44.67,0,0,0,625,154.76a70.35,70.35,0,0,0-15.9-1.14c-5,.27-12.35.58-21.61,1.21l-10.49.71-1.86,43.34C581.9,198.43,587.07,197.93,590.54,197.53Z" style="fill:#803af3"/><path d="M854.48,76.05c0,4.73-.42,7.14-1.24,7.22a20.93,20.93,0,0,1-4.16-.06,30.21,30.21,0,0,0-5.71.1q-24.71,2.44-49.4,4.84c-15.31,1.36-23,2-38.28,3.36q-1.85.17-13.89,2.23L734.7,95c-.25,3.36-.37,5-.62,8.39q-.3,4.66-.3,14.54c0,3.3.18,7.62.61,12.91.4,4.89.62,8.49.62,10.75V154c0,3.29-.1,7.32.31,7.69s4.63-.13,8.33-.47L756,160c1.24-.12,3.76-.63,7.41-1.32,5.24-1,10-1.57,13.89-1.94q2.48-.24,17.29-.75l6.79-.35c1.65-.16,4-.54,7.1-1.15s6.07-1.06,8.95-1.34l10.19-.69q8-.16,11.11-.48a23.24,23.24,0,0,0,4.64-.76l1.85-.49a3.12,3.12,0,0,1,3.08,1.08,3.26,3.26,0,0,1,.62,2.57,32.13,32.13,0,0,0-.31,5.43,46.4,46.4,0,0,1-.31,5.74c-.2,1.67-.51,2.68-.92,3s-1.65.63-3.71.83l-12.34,0q-23.16.12-30.26.8c-17.49,1.7-30.6,3.08-38.59,4.64-3.22.63-6.89,1.27-10.8,1.64l-7.41.69a83.27,83.27,0,0,1-8.64.5c-.37,2-.56,3-.93,5a92.77,92.77,0,0,0-.62,9.94,69.8,69.8,0,0,0,.62,8.59,69.65,69.65,0,0,1,.62,8.58c.12,14.69.18,22,.31,36.71L735.32,262a74,74,0,0,0-.31,7.75c2.67,0,6.7-.43,11.73-.78,4.21-.3,11-.73,20.07-1.59l16.67-1.29q5.24-.19,16-1.24,6.48-.63,17-2.28l13-1.58q7.41-.72,12.35-.91t7.41-.42c1.64-.16,2.62.05,2.93.64a10.4,10.4,0,0,1,.47,4,35.63,35.63,0,0,1-.31,4.51,38.59,38.59,0,0,0-.31,5.12,3.3,3.3,0,0,1-1.55,3.08,12.28,12.28,0,0,1-4.93,1.26,40.18,40.18,0,0,1-5.56.24q-8.34-.1-33.65,2.37c-10.29,1-17.74,1.8-22.23,2.47-3.48.51-9.26,1.2-17.28,2l-28.71,2.4q-5,.15-11.73.77c-2.89.26-4.79.08-5.71-.56s-1.39-1.77-1.39-3.42l.3-5a11.57,11.57,0,0,0,.31-2.81c0-.61-.1-2.1-.31-4.44s-.3-6.71-.3-13.09c0-6.18,0-16.42-.62-30.2-.47-11.33-.93-22.55-.93-33.26q0-6.78,1.55-39.34.3-6.51.61-13t.31-11.75c0-15.69.55-32-.92-47.15-.47-4.76,2.36-7.62,9-8.23a73.81,73.81,0,0,1,8-.12,72.67,72.67,0,0,0,7.41-.07l19.45-2.45q21-3.22,32.42-4.35c8.84-.86,21.41-2,37.35-3,5.1-.33,10.6-.73,16.36-1.3,2.47-.24,4,.22,4.63,1.4a6.76,6.76,0,0,1,.77,3.78q-.15,2-.15,2.64Z" style="fill:#803af3"/><path d="M1026.15,334.76q-.51,2.43-6,1.78c-8.86-1-13.3-1.54-22.17-2.55-.82-.09-1.49-.89-2-2.39a38.84,38.84,0,0,1-1.29-4.48c-.32-1.48-.59-2.75-.79-3.8q-.93-3.19-2.86-14.56c-1.28-7.57-2.22-13.55-2.78-17.94a71.37,71.37,0,0,0-1.87-9.33c-1.05-4.14-2-7.15-2.31-8.76-.47-2.3-.77-4.21-1.32-5.1a3.75,3.75,0,0,0-3-1.56c-1.44-.16-3.26-.26-5.45-.29s-4.75-.27-7.06-.15a136.21,136.21,0,0,1-15.54-1.07c-6-.64-12-1.18-17.7-1.27-1.85,0-5.2-.24-9.93-.74l-16.29-2a2.87,2.87,0,0,0-2.56,1,9.08,9.08,0,0,0-1.67,2.76,21.51,21.51,0,0,1-1.14,2.51l-3.4,7.36q-1.79,4.14-4.32,9.59t-4.45,10.19l-6.05,12.65-4.27,8.52a18.78,18.78,0,0,1-2.65,4.51,3,3,0,0,1-2.53.81l-18.21-1.89c-1-.11-1.46-.56-1.29-1.37a27.66,27.66,0,0,1,2.1-4.11c2.43-3.65,4.65-7.34,6.67-11,8.16-15.68,17-31.39,23.6-47.58,4-9.73,10.38-22.5,19.4-37.82q4.88-10,9.08-18.21,1.79-4.12,4.88-10,10.19-20.55,19.83-38.39l12.66-23.38q4.38-9.1,10.13-18.7,2.78-4.34,4.75-1.66a6.7,6.7,0,0,1,1.91,4.53c.2,2.08.32,3.54.36,4.37q.18,3.72,8.92,38a280.73,280.73,0,0,1,6.63,33.8q1.29,9.12,9.22,39.67,4.17,15,5.22,20.68c4.77,18.28,10.44,36.36,16,54.42l2.15,8q3.93,16.25,6.75,20.91A12,12,0,0,1,1026.15,334.76ZM968.89,221.91a8.61,8.61,0,0,0,2.52,0c.66-.14,1-.4,1.11-.81a6.65,6.65,0,0,0-.43-2.52q-1-2.9-4-16c-2-8.76-3.13-15.54-3.84-19.73-.83-4.9-1.84-9.27-2.31-12.61s-1-5.7-1.26-6.93c-.24-1-.46-2.11-.76-3.18a20.15,20.15,0,0,0-.9-2.56c-.28-.65-.64-1-1-1-.61-.07-1.59,1.38-2.93,4.32S952.7,166,952,167.56q-9.13,17-13.46,25.76-2.16,4.41-5.81,10.67c-2.43,4.17-4.19,7-5.06,8.58a16.88,16.88,0,0,0-1.92,4.74c-.24,1.21.56,1.91,2.41,2.11q6.48.68,20,1.65c9,.65,14.72.86,17,.74A24.72,24.72,0,0,1,968.89,221.91Z" style="fill:#803af3"/><path d="M1111.32,75.25c2-.15,3.39.11,4,.78a4.61,4.61,0,0,1,.93,3.18c0,.82,0,2.31.15,4.46s.15,5.7.15,10.64c0,1.85-.2,5-.61,9.31s-.73,8-.93,10.87q-1.85,17.43-1.85,22.67v20.38q0,8.33.31,12.94a81.53,81.53,0,0,0,7.41-9.81c4.56-6.26,6.85-9.38,11.42-15.63q7.41-10.09,17.59-25t15.75-23.24q.3-.33,5.86-7.78.93-1.29,5.87-7.61c3.29-4.21,5.23-7.4,5.86-9.45.59-1.87,1.5-3.07,2.63-3.55a14.26,14.26,0,0,1,3.55-1c1.23-.17,2.16-.28,2.78-.31q3.39-.19,6.79-.69c2.26-.32,4.32-.64,6.17-.94l1.24-.07c3.7-.19,5.55.44,5.55,1.87a4.13,4.13,0,0,1-1.38,2.7l-1.7,1.78q-4.63,5.5-13.9,17.27c-6.17,7.85-11.8,14.85-16,20.83-4.79,6.76-11.37,16.64-19.91,28.72s-13.84,19.43-15.9,22a144.35,144.35,0,0,0-9.41,14.85q-6.33,11-6.33,12.18,0,1.55,2.93,4.11c2,1.71,3.65,3.25,5.1,4.58q2.77,3.21,10.8,11.15t12.66,12.28l6.48,6.69c12.35,13.22,21.12,21.87,25.93,25.92,5.34,4.5,11.17,10.14,17.44,16.5s9.93,10,11,11l.62,1.21c0,.82-.67,1.53-2,2.1a6.48,6.48,0,0,1-4.17.36l-9.87.83c-6.3.58-9.45.87-15.75,1.48q-7.71.75-12-2.68c-.61-.59-2.11-1.94-4.47-4.06s-4.69-4.34-7-6.66q-9.26-9.3-21.3-20.53a88.86,88.86,0,0,0-8-6.54l-9.57-8c-4.69-3.62-7-5.42-11.73-9v25.93a152.47,152.47,0,0,0,.93,15.67c.25,5.54.37,8.31.62,13.85,0,2.06-.42,3.32-1.24,3.79a6,6,0,0,1-2.62.82l-2,.15-6.17.15-10.19.17-13.58,1.69L1070,291.81c-1.44.12-2.32-.22-2.62-1a21.3,21.3,0,0,1-.47-5.83q-.15-37.8-.31-75.6v-29c0-14.49.33-29.28-.61-43.48-.16-2.41-.31-6.35-.31-11.7l.31-20.4.31-24.42c0-1.85,1-2.86,3.08-3a13.42,13.42,0,0,1,3.55.17,11.63,11.63,0,0,0,3.24.2C1090.2,76.67,1097.24,76.18,1111.32,75.25Z" style="fill:#803af3"/><path d="M1401.91,67.07c0,5.94-.52,8.9-1.55,8.9a27.85,27.85,0,0,1-5.23-.62,36.88,36.88,0,0,0-7.16-.61q-31-.13-62,.37c-19.21.15-28.82.28-48,.68-1.55,0-7.36.59-17.43,1.7l-8.91,1.08c-.31,4.2-.46,6.29-.77,10.49q-.39,5.82-.39,18.21c0,4.14.24,9.57.77,16.24.5,6.17.78,10.69.78,13.53v15.5c0,4.13-.15,9.14.39,9.66s5.81.19,10.45,0c6.2-.21,9.3-.3,15.5-.48,1.55,0,4.71-.48,9.29-1,6.58-.79,12.52-1.08,17.43-1.18,2.06-.05,9.3.17,21.69.76l8.52.27c2.06,0,5-.26,8.91-.68a109.86,109.86,0,0,1,11.23-.68c5.11.12,7.67.19,12.78.33q10.07.75,14,.77A29.56,29.56,0,0,0,1388,160l2.32-.38a4.3,4.3,0,0,1,3.87,1.76,4.38,4.38,0,0,1,.78,3.3,38.17,38.17,0,0,0-.39,6.77,57.79,57.79,0,0,1-.39,7.16c-.25,2.07-.65,3.3-1.16,3.68s-2.07.57-4.65.56c-6.19-.64-9.29-1-15.49-1.57-19.36-1.78-32-2.52-38-2.44-22,.28-38.37.84-48.41,2.11-4,.52-8.65,1-13.56,1.16l-9.29.29c-4.91.16-8.52.16-10.85,0-.46,2.5-.69,3.74-1.16,6.24a113.43,113.43,0,0,0-.77,12.42,87.37,87.37,0,0,0,.77,10.82,87.42,87.42,0,0,1,.78,10.81l.38,46.08-.38,19.38a92.85,92.85,0,0,0-.39,9.7c3.35.14,8.41-.06,14.72-.11,5.29,0,13.81,0,25.17-.33,8.37,0,12.55-.06,20.92-.07,4.39.18,11.1.18,20.14.06q8.13-.1,21.3-1c6.51-.2,9.76-.29,16.27-.46q9.29,0,15.49.39c4.12.27,7.23.42,9.29.43s3.3.41,3.68,1.19.59,2.46.59,5a43.91,43.91,0,0,1-.39,5.62,48.08,48.08,0,0,0-.39,6.39,3.68,3.68,0,0,1-1.94,3.66,14.69,14.69,0,0,1-6.19.94,53.33,53.33,0,0,1-7-.41c-7-.79-21-1.21-42.22-1-12.92.14-22.26.41-27.89.81-4.36.3-11.62.61-21.69.86-14.41.2-21.61.34-36,.68-4.13-.11-9-.07-14.71.15q-5.43.21-7.17-1.08t-1.74-4.38l.38-6.22a14.36,14.36,0,0,0,.39-3.5c0-.77-.13-2.64-.39-5.6s-.38-8.44-.38-16.44c0-7.75-.06-20.61-.78-37.93-.59-14.25-1.16-28.35-1.16-41.78q0-8.52,1.94-49.27.38-8.15.77-16.29t.39-14.74c0-19.69.68-40.14-1.16-59.21-.58-6,3-9.42,11.23-9.73a89.24,89.24,0,0,1,10.07.41,90.81,90.81,0,0,0,9.29.46c9.76-.63,14.64-.93,24.4-1.5,17.56-1.48,31.12-2.24,40.67-2.38,11.1-.17,26.88-.24,46.87.41,6.4.2,13.29.39,20.52.44q4.65,0,5.81,2.36a9.09,9.09,0,0,1,1,4.85c-.13,1.68-.19,2.78-.19,3.29Z" style="fill:#803af3"/><path d="M1567.71,225.72c0,.82-.52,1.3-1.55,1.41a14.17,14.17,0,0,1-2.62.08l-1.7-.15c-13.95-.83-20.93-1.19-34.88-1.76a4.77,4.77,0,0,1-3.86-2.42,48.83,48.83,0,0,1-3.86-8,129.62,129.62,0,0,0-5.55-12.7c-7.48-14.1-14.39-28.5-21.31-42.87-6.29-12.54-9.44-18.8-15.74-31.3.37,6.56.56,9.84.93,16.4.62,9.41.92,14.12,1.54,23.53.74,15.28,1.09,30.65,3.09,45.83a13.48,13.48,0,0,1,.31,3.1c0,3.7-2,5.46-5.87,5.3a14.28,14.28,0,0,1-3.09-.44c-3.29-.56-11.33-.47-24.07.36-8.64.56-13.9.85-15.75.81q-4-.09-5.4-1.67c-.93-1-1.39-2.8-1.39-5.27l.31-7.1c-.25-7.16-.37-10.75-.62-17.92-.93-18.62-1.86-37.26-1.85-55.91a121,121,0,0,1,.92-17c2.19-13.74,1.61-29,1.55-43.49-.08-18.84-.12-37.7-1.24-56.52a59.22,59.22,0,0,1-.31-6.8q0-4.93.93-7.08c.62-1.42,1.29-2.18,2-2.27a29.39,29.39,0,0,1,3.86-.07c2.71-.19,4.07-.28,6.79-.45a284.56,284.56,0,0,1,34-1.33c18.89.64,38.79,6.37,52,20.57,11.89,12.77,17.24,30.4,17.44,47.41.17,13.72-5.75,31.31-14.51,42.16a80.65,80.65,0,0,1-14.2,15.13q10.85,20.31,21.61,40.65c9.08,16.87,17.88,34.05,27.79,50.38C1566.27,221.14,1567.71,224.29,1567.71,225.72Zm-84.59-140.3q8.64-3.6,8.65-15.94,0-9-2.78-13.41c-1.85-3-4.22-4.53-7.1-4.66a7.62,7.62,0,0,0-5.87,2.21q-.3.3,0,4.32c.21,2.68.31,5.37.31,8a27.1,27.1,0,0,1-.31,4.92,46.59,46.59,0,0,0-1.23,10.76c-.12,1.1-.19,1.66-.31,2.76.12,1,.19,1.49.31,2.49A18,18,0,0,0,1483.12,85.42Z" style="fill:#803af3"/><path d="M1615.42,62.55c13.46,1.79,20.19,2.75,33.65,4.82,21.4,3.09,35.31,5.81,41.68,7.48,11.67,3.08,20.06,5.1,25,6a43.4,43.4,0,0,0,6.48.92l2.17.11c1.43.28,2.31.71,2.62,1.28a3.05,3.05,0,0,1,.31,1.92,12.71,12.71,0,0,0-.16,1.66,97.24,97.24,0,0,1-1.23,11.18,10.11,10.11,0,0,1-2.62,5.67q-2.33,2.64-7.26,7.27c.2-.17-2.16,2.05-7.1,6.71-11.16,12.94-21.59,26.51-31.79,40.21-10.94,14.15-22.93,27.52-34.58,41.08l-4.94,5.8q-6.8,8.32-20.07,23.6-2.77,2.75-7.71,10.48c-1.86,2.74-2.78,4.11-4.63,6.86l-8,12.34c9.67,1.3,22.74,3,39.21,5.2q21.48,3.06,42.91,6.74c5.06,1.07,7.59,1.62,12.65,2.74,5.93,1.26,8.89,1.91,14.82,3.23,8.15,1.35,12.22,2.06,20.37,3.52l.62.12c1.65.33,2.42.94,2.32,1.85s-.16,1.46-.16,1.67l.31,9.94q0,3.69-4,2.91a45.21,45.21,0,0,1-4.63-1.51,89,89,0,0,0-19.76-4.57c-12-1.89-18-2.77-29.94-4.42-16.8-2.3-25.19-3.33-42-5.19-17.7-2.4-35.81-4.9-53.71-5.34l-1.85-.18c-2.06-.21-3.3-.75-3.71-1.61a4.41,4.41,0,0,1-.46-2.51,16.29,16.29,0,0,0,.15-1.84c0-3.09,1.83-7.31,5.56-12.1,2.94-3.79,5.25-6.57,6.48-8.29,12.38-15.45,24.61-31.07,37.66-46,8.52-9.79,12.79-14.66,21.31-24.34,10.65-12,21.3-24.05,32.1-35.94q10.18-10.72,23.77-29.37c4.94-6.91,7.41-10.36,12.35-17.24-7.41-1.35-11.11-2-18.52-3.27-14.2-2.43-23.34-4-27.17-4.72-6.19-1.12-12.4-2-17.9-3-15.21-2.55-30.82-4.8-46.31-6.56-8.85-1-15.19-1.41-18.83-1.44-7.7-.07-11.73-2-11.73-5.5a56.84,56.84,0,0,1,1.23-11.92c.21-1.83,1.44-2.64,3.71-2.41a31.86,31.86,0,0,1,5.25,1.3,32.28,32.28,0,0,0,5.86,1.39C1597.27,60.54,1603.32,61.18,1615.42,62.55Z" style="fill:#803af3"/></g></g></svg>